# xmcd CD database file
#
# Track frame offsets:
#	150
#	11785
#	25850
#	38242
#	56467
#	73240
#	88940
#	101717
#	115047
#	132977
#	152202
#
# Disc length: 2188 seconds
#
# Revision: 2
# Processed by: cddbd v1.5.2PL0 Copyright (c) Steve Scherf et al.
# Submitted via: CDex 1.51
#
DISCID=95088a0b
DTITLE=Los Pistoleros - Trigger Happy
DYEAR=1900
DGENRE=Swing
TTITLE0=Don't Let The Stars Get In Your Eyes
TTITLE1=Swingin' With The Chickens
TTITLE2=Blood On The Honky-Tonk Floor
TTITLE3=Break For The Border
TTITLE4=Cow Cow Boogie
TTITLE5=Slowly
TTITLE6=Pink City Polka
TTITLE7=Engaged To Be Living In Sin
TTITLE8=One More Heartbreak
TTITLE9=Is A Bluebird Blue?
TTITLE10=Little Rock Getaway
EXTD=
EXTT0=
EXTT1=
EXTT2=
EXTT3=
EXTT4=
EXTT5=
EXTT6=
EXTT7=
EXTT8=
EXTT9=
EXTT10=
PLAYORDER=
